<svg width="60" height="120" viewBox="0 0 60 120" xmlns="http://www.w3.org/2000/svg">
  <defs>
    <linearGradient id="helixGradient1" x1="0%" y1="0%" x2="100%" y2="100%">
      <stop offset="0%" style="stop-color:#3b82f6;stop-opacity:1" />
      <stop offset="100%" style="stop-color:#8b5cf6;stop-opacity:1" />
    </linearGradient>
    <linearGradient id="helixGradient2" x1="0%" y1="0%" x2="100%" y2="100%">
      <stop offset="0%" style="stop-color:#06b6d4;stop-opacity:1" />
      <stop offset="100%" style="stop-color:#10b981;stop-opacity:1" />
    </linearGradient>
  </defs>
  
  <!-- Left strand -->
  <path d="M15 10 Q5 30 15 50 Q25 70 15 90 Q5 110 15 120" 
        stroke="url(#helixGradient1)" 
        stroke-width="3" 
        fill="none" 
        stroke-linecap="round"/>
  
  <!-- Right strand -->
  <path d="M45 10 Q55 30 45 50 Q35 70 45 90 Q55 110 45 120" 
        stroke="url(#helixGradient2)" 
        stroke-width="3" 
        fill="none" 
        stroke-linecap="round"/>
  
  <!-- Connecting base pairs -->
  <line x1="15" y1="20" x2="45" y2="20" stroke="#3b82f6" stroke-width="1.5" opacity="0.7"/>
  <line x1="18" y1="30" x2="42" y2="30" stroke="#06b6d4" stroke-width="1.5" opacity="0.7"/>
  <line x1="15" y1="40" x2="45" y2="40" stroke="#8b5cf6" stroke-width="1.5" opacity="0.7"/>
  <line x1="12" y1="50" x2="48" y2="50" stroke="#10b981" stroke-width="1.5" opacity="0.7"/>
  <line x1="15" y1="60" x2="45" y2="60" stroke="#3b82f6" stroke-width="1.5" opacity="0.7"/>
  <line x1="18" y1="70" x2="42" y2="70" stroke="#06b6d4" stroke-width="1.5" opacity="0.7"/>
  <line x1="15" y1="80" x2="45" y2="80" stroke="#8b5cf6" stroke-width="1.5" opacity="0.7"/>
  <line x1="12" y1="90" x2="48" y2="90" stroke="#10b981" stroke-width="1.5" opacity="0.7"/>
  <line x1="15" y1="100" x2="45" y2="100" stroke="#3b82f6" stroke-width="1.5" opacity="0.7"/>
</svg>